<?xml version="1.0" encoding="UTF-8" standalone="no"?>
<!-- Created with Inkscape (http://www.inkscape.org/) -->

<svg
   width="64"
   height="64"
   viewBox="0 0 16.933333 16.933334"
   version="1.1"
   id="svg5"
   xmlns="http://www.w3.org/2000/svg"
   xmlns:svg="http://www.w3.org/2000/svg">
  <defs
     id="defs2" />
  <g
     id="layer1">
    <g
       id="g1870"
       transform="matrix(0.04112404,0,0,0.04114593,-17.382196,10.589038)">
      <path
         style="fill:#000000;stroke-width:0.264583"
         d="m 592.26131,-11.427324 c 2.59358,2.0201935 8.67968,6.0560085 12.17354,8.0724795 5.07193,2.92714999 15.78312,7.589585 21.38953,9.310454 22.32798,6.8535825 44.94774,7.1742435 68.48918,0.970913 4.89887,-1.290895 19.03502,-6.77130001 23.55951,-9.133723 15.76544,-8.2317915 27.27928,-18.3343915 34.75518,-30.4952845 3.88076,-6.31264 6.78982,-15.048891 6.90675,-20.741404 l 0.022,-1.072618 -2.36844,2.641889 c -5.45582,6.08571 -11.25309,10.825978 -18.7588,15.338535 -16.88399,10.150947 -45.55605,20.135657 -71.49161,24.896112 -25.71132,4.7192915 -49.08611,4.8584205 -70.43037,0.419229 -2.69177,-0.559826 -4.95299,-0.994676 -5.02491,-0.966347 -0.0717,0.02825 0.27836,0.370224 0.77842,0.759765 z"
         id="path836" />
      <path
         style="fill:#000000;stroke-width:0.264583"
         d="m 619.0709,154.14658 c -0.58208,-0.0535 -3.02286,-0.22823 -5.42396,-0.38833 C 586.48787,151.9476 557.36982,143.48602 532.68445,130.23089 508.95861,117.491 487.18903,99.616118 470.483,79.157578 444.63519,47.503858 428.89871,9.844494 424.8771,-29.983049 c -1.35594,-13.428477 -1.35422,-28.7857 0.005,-41.936457 1.53447,-14.849467 4.87477,-30.047124 9.7572,-44.393164 4.2029,-12.34938 4.92046,-13.98506 7.15564,-16.31134 3.0538,-3.17825 6.31509,-4.63206 10.85836,-4.84039 3.35383,-0.15378 5.23074,0.21413 8.04565,1.5771 2.52279,1.22154 5.77961,4.50918 7.00979,7.07613 1.31242,2.73856 1.84847,5.37378 1.66521,8.18606 -0.14933,2.29164 -0.37072,3.03396 -2.40129,8.0515 -4.93652,12.19824 -8.77345,28.746833 -10.40754,44.887437 -0.67964,6.713164 -0.68067,26.505796 -0.002,32.940624 1.56678,14.849141 4.31425,27.590083 8.67982,40.251162 16.07634,46.624465 51.43484,84.377115 96.81039,103.365447 16.43379,6.87705 32.60326,10.88937 51.59374,12.80255 6.60056,0.66495 24.62028,0.66495 31.22084,0 26.31388,-2.65097 49.86329,-10.12534 71.40246,-22.662492 40.16746,-23.38004 69.5147,-62.05164 80.82455,-106.504584 3.52875,-13.869641 5.128,-25.848868 5.38663,-40.348958 0.21145,-11.855479 -0.46863,-21.282746 -2.33749,-32.40175 -9.07,-53.963036 -43.51952,-100.762866 -92.30532,-125.397266 -19.98073,-10.08927 -39.10583,-15.63476 -62.30938,-18.06714 -5.65829,-0.59315 -25.59609,-0.68003 -31.48541,-0.13721 -15.11603,1.39326 -29.49243,4.42896 -41.67188,8.79937 -5.51607,1.97937 -6.96096,2.33596 -9.53555,2.35334 -4.43633,0.0299 -8.17568,-1.52433 -11.38256,-4.73121 -7.59685,-7.59686 -5.72651,-20.31545 3.7145,-25.25924 3.1705,-1.66023 15.41915,-5.60549 24.21507,-7.79961 24.53747,-6.12081 51.93603,-7.57458 77.58024,-4.11641 37.16667,5.012 73.1169,20.66707 102.08184,44.45306 7.91703,6.50145 18.04284,16.24493 24.17851,23.26553 28.07308,32.12207 44.98075,69.91823 50.00635,111.786454 1.02182,8.512685 1.21145,12.309688 1.20907,24.209374 -0.003,11.833974 -0.14743,14.681464 -1.21992,23.944791 -6.45631,55.765649 -36.00569,106.739719 -81.59234,140.750661 -28.36638,21.16339 -62.28085,34.77578 -97.23437,39.02737 -8.33646,1.01401 -12.20027,1.23425 -23.15105,1.31955 -6.11187,0.0476 -11.58875,0.0428 -12.17083,-0.0106 z M 525.27612,-54.363588 c -5.7362,-0.618987 -9.78462,-2.447012 -13.59128,-6.137008 -4.46034,-4.323635 -6.88061,-9.992192 -6.85242,-16.049118 0.0259,-5.570813 1.77749,-9.813955 5.62481,-13.626042 4.53085,-4.489344 10.80052,-6.908835 16.91876,-6.529007 4.46908,0.277448 7.99941,1.626714 11.4678,4.382916 5.76967,4.584946 9.29462,13.429001 8.13193,20.402918 -1.16036,6.959999 -5.37789,12.479662 -11.91002,15.587151 -3.24616,1.544277 -6.90363,2.27961 -9.78958,1.96819 z m 67.07187,-45.180434 c -5.77156,-0.967978 -10.0862,-2.809308 -14.66184,-6.257168 -6.28614,-4.73675 -10.72918,-12.06653 -12.09961,-19.96102 -0.62948,-3.62622 -0.38177,-10.01925 0.52075,-13.43924 1.49802,-5.67661 4.22577,-10.38586 8.48006,-14.64015 6.24536,-6.24536 13.78283,-9.35916 22.65543,-9.35916 23.90925,0 39.30763,25.34043 28.36339,46.67637 -4.35511,8.49034 -12.44627,14.62199 -22.05635,16.714771 -2.63672,0.574193 -8.52885,0.713899 -11.20183,0.265597 z m 112.15655,-0.01289 c -13.61821,-2.115498 -24.49685,-12.855708 -26.68443,-26.344858 -3.19149,-19.67944 11.73878,-37.29898 31.606,-37.29898 14.86585,0 27.52571,9.94394 31.11402,24.43912 0.89651,3.62155 1.12091,8.81808 0.53456,12.37922 -0.812,4.93166 -2.3658,8.89488 -5.096,12.9984 -6.82091,10.25185 -19.27336,15.722405 -31.47415,13.827095 z m -207.68425,-8.982678 c -0.77795,-0.33885 -2.23584,-1.81833 -2.23584,-2.26895 0,-0.12059 -1.13884,-2.62085 -2.53075,-5.55613 -5.00511,-10.55482 -6.72967,-17.92736 -6.72967,-28.76947 0,-9.67103 1.4007,-17.25984 5.55662,-30.10516 2.22509,-6.87741 3.69513,-12.45886 4.5296,-17.19791 0.84512,-4.79961 0.86355,-12.34645 0.0388,-15.89959 -1.66929,-7.19171 -5.08493,-12.78182 -9.58837,-15.69253 -8.06504,-5.21269 -21.69297,-2.42006 -33.08041,6.77883 -2.77738,2.24361 -6.74119,6.41062 -8.62,9.06192 -1.74709,2.46541 -2.80282,3.25583 -4.34871,3.25583 -1.74321,0 -1.24323,0.47383 -13.66791,-12.95324 -4.4141,-4.77021 -4.48171,-5.49783 -0.94686,-10.19038 8.42168,-11.17988 24.75194,-21.8769 40.84579,-26.75576 6.86858,-2.08221 11.39868,-2.69107 18.46983,-2.48237 5.477,0.16164 8.27427,0.63505 12.98245,2.19716 20.72407,6.87593 33.19269,28.80373 30.30131,53.28905 -0.97351,8.24403 -2.50487,14.45129 -7.1281,28.89329 -2.46348,7.69542 -3.27005,10.67838 -4.17017,15.42278 -0.52123,2.74735 -0.60268,4.03031 -0.60469,9.525 -0.002,5.63735 0.0654,6.65821 0.60124,9.09627 1.00986,4.59492 2.09531,7.61047 4.61452,12.81976 2.02506,4.1875 2.41262,5.19629 2.42848,6.32106 0.0168,1.19066 -0.0722,1.41171 -0.80621,2.00299 -0.45379,0.36554 -5.75207,2.66609 -11.77396,5.11231 -11.52314,4.68097 -12.28535,4.90177 -14.137,4.09524 z"
         id="path836-3" />
    </g>
  </g>
</svg>
